<svg xmlns="http://www.w3.org/2000/svg" xmlns:svg="http://www.w3.org/2000/svg" xmlns:xlink="http://www.w3.org/1999/xlink" version="1.0" height="915.1779755262492pt" width="1777.3657608032227pt" viewBox="-370.00000000000006 32 1785.3657608032227 921.1779755262492" ><defs><style type="text/css">
            @font-face {
                font-family: 'noto_regular';
                src: url('https://app.creately.com/diagram/assets/fonts/noto/noto-regular.woff') format('woff'),
                     url('https://app.creately.com/diagram/assets/fonts/noto/noto-regular.woff2') format('woff2');
                font-weight: normal;
                font-style: normal;
            }
        p {
            margin: 0;
        }
        </style></defs><defs><style>
            span{ display: inline-block; }
        </style></defs><g id="712wzb9qwt"><g transform="translate(-365 35) rotate(1.832406866795373e-15)"><rect x="0" y="0" width="1777.3657608032227" height="915.1779755262492" fill="rgba(255,255,255,1)" stroke="#ffffff" stroke-width="1.5" stroke-linecap="round" stroke-linejoin="round"/></g></g><g id="nhzv8q4bfm"><g transform="translate(270 140)"><ellipse cx="50" cy="25" rx="50" ry="25" fill="rgba(52,193,212,1)" stroke="#34c1d4" stroke-width="1.5" stroke-linecap="round" stroke-linejoin="round"/></g><g transform="translate(294.5, 155.5) rotate(0, 25.5, 9.5)" width="51" height="19"><text text-decoration="underline" x="2.5" fill="rgb(0, 0, 0)" font-size="10pt" font-family="Lato"  y="17">User_ID</text><text text-decoration="none" x="48.5" fill="#4b4b4b" font-size="10pt" font-family="noto_regular"  y="17"></text></g></g><g id="e5lqg2dd23"><g transform="translate(190 200)"><ellipse cx="50" cy="25" rx="50" ry="25" fill="rgba(52,193,212,1)" stroke="#34c1d4" stroke-width="1.5" stroke-linecap="round" stroke-linejoin="round"/></g><g transform="translate(227, 215.5) rotate(0, 13, 9.5)" width="26" height="19"><text text-decoration="none" x="1.5" fill="rgb(0, 0, 0)" font-size="10pt" font-family="Lato"  y="17">City</text><text text-decoration="none" x="24.5" fill="#4b4b4b" font-size="10pt" font-family="noto_regular"  y="17"></text></g></g><g id="1f196iksfu"><g transform="translate(150 280)"><ellipse cx="50" cy="25" rx="50" ry="25" fill="rgba(52,193,212,1)" stroke="#34c1d4" stroke-width="1.5" stroke-linecap="round" stroke-linejoin="round"/></g><g transform="translate(183, 295.5) rotate(0, 17, 9.5)" width="34" height="19"><text text-decoration="none" x="1.5" fill="rgb(0, 0, 0)" font-size="10pt" font-family="Lato"  y="17">State</text><text text-decoration="none" x="32.5" fill="#4b4b4b" font-size="10pt" font-family="noto_regular"  y="17"></text></g></g><g id="1qxo7psa76"><g transform="translate(200 360)"><ellipse cx="50" cy="25" rx="50" ry="25" fill="rgba(52,193,212,1)" stroke="#34c1d4" stroke-width="1.5" stroke-linecap="round" stroke-linejoin="round"/></g><g transform="translate(224.5, 375.5) rotate(0, 25.5, 9.5)" width="51" height="19"><text text-decoration="none" x="1" fill="rgb(0, 0, 0)" font-size="10pt" font-family="Lato"  y="17">Country</text><text text-decoration="none" x="50" fill="#4b4b4b" font-size="10pt" font-family="noto_regular"  y="17"></text></g></g><g id="11zcoki7hk"><g transform="translate(275 420)"><ellipse cx="50" cy="25" rx="50" ry="25" fill="rgba(52,193,212,1)" stroke="#34c1d4" stroke-width="1.5" stroke-linecap="round" stroke-linejoin="round"/></g><g transform="translate(312.5, 435.5) rotate(0, 12.5, 9.5)" width="25" height="19"><text text-decoration="none" x="1.5" fill="rgb(0, 0, 0)" font-size="10pt" font-family="Lato"  y="17">Age</text><text text-decoration="none" x="23.5" fill="#4b4b4b" font-size="10pt" font-family="noto_regular"  y="17"></text></g></g><g id="7jxgk9vzzp"><g transform="translate(400 275)"><rect x="0" y="0" width="100" height="50" fill="rgba(154,175,149,1)" stroke="#9aaf95" stroke-width="1.5" stroke-linecap="round" stroke-linejoin="round"/></g><g transform="translate(431.5, 290.5) rotate(0, 18.5, 9.5)" width="37" height="19"><text text-decoration="none" x="2" fill="rgb(0, 0, 0)" font-size="10pt" font-family="Lato"  y="17">Users</text><text text-decoration="none" x="35" fill="#4b4b4b" font-size="10pt" font-family="noto_regular"  y="17"></text></g></g><g id="27ghmsf0at"><g><path d="M 450,275 L 335,190" fill="none" stroke="#a0a0a0" stroke-width="1.5" stroke-linecap="round" stroke-linejoin="round"/></g></g><g id="232vak7tx5"><g><path d="M 400,300 L 270,245" fill="none" stroke="#a0a0a0" stroke-width="1.5" stroke-linecap="round" stroke-linejoin="round"/></g></g><g id="9slqd4s721"><g><path d="M 400,300 L 250,305" fill="none" stroke="#a0a0a0" stroke-width="1.5" stroke-linecap="round" stroke-linejoin="round"/></g></g><g id="dayw6sbdup"><g><path d="M 400,300 L 300,385" fill="none" stroke="#a0a0a0" stroke-width="1.5" stroke-linecap="round" stroke-linejoin="round"/></g></g><g id="8f117vhy97"><g><path d="M 450,325 L 375,445" fill="none" stroke="#a0a0a0" stroke-width="1.5" stroke-linecap="round" stroke-linejoin="round"/></g></g><g id="64ae85q78g"><g transform="translate(640 255.10000000000002)"><path d="M 155.0051474571228,45.00149846076965 L 77.5025737285614,90.0029969215393 L 0,45.00149846076965 L 77.5025737285614,0 L 155.0051474571228,45.00149846076965 L 155.0051474571228,45.00149846076965 Z" fill="rgba(154,175,149,1)" stroke="#9aaf95" stroke-width="1.5" stroke-linecap="round" stroke-linejoin="round"/></g><g transform="translate(705.0025737285614, 290.6014984607697) rotate(0, 12.5, 9.5)" width="25" height="19"><text text-decoration="none" x="1" fill="rgb(0, 0, 0)" font-size="10pt" font-family="Lato"  y="17">Buy</text><text text-decoration="none" x="24" fill="#4b4b4b" font-size="10pt" font-family="noto_regular"  y="17"></text></g></g><g id="wozszhm2gt"><g transform="translate(915 275)"><rect x="0" y="0" width="100" height="50" fill="rgba(154,175,149,1)" stroke="#9aaf95" stroke-width="1.5" stroke-linecap="round" stroke-linejoin="round"/></g><g transform="translate(945, 290.5) rotate(0, 20, 9.5)" width="40" height="19"><text text-decoration="none" x="1.5" fill="rgb(0, 0, 0)" font-size="10pt" font-family="Lato"  y="17">Books</text><text text-decoration="none" x="38.5" fill="#4b4b4b" font-size="10pt" font-family="noto_regular"  y="17"></text></g></g><g id="1mqj0ooeid"><g transform="translate(1190 175)"><ellipse cx="67.5000011920929" cy="25" rx="67.5000011920929" ry="25" fill="rgba(52,193,212,1)" stroke="#34c1d4" stroke-width="1.5" stroke-linecap="round" stroke-linejoin="round"/></g><g transform="translate(1242.000001192093, 190.5) rotate(0, 15.5, 9.5)" width="31" height="19"><text text-decoration="underline" x="1" fill="rgb(0, 0, 0)" font-size="10pt" font-family="Lato"  y="17">ISBN</text><text text-decoration="none" x="30" fill="#4b4b4b" font-size="10pt" font-family="noto_regular"  y="17"></text></g></g><g id="1syjjgz0zk"><g transform="translate(1190 260)"><ellipse cx="85.00071167945862" cy="27.500230073928833" rx="85.00071167945862" ry="27.500230073928833" fill="rgba(52,193,212,1)" stroke="#34c1d4" stroke-width="1.5" stroke-linecap="round" stroke-linejoin="round"/></g><g transform="translate(1241.5007116794586, 278.00023007392883) rotate(0, 33.5, 9.5)" width="67" height="19"><text text-decoration="none" x="3.5" fill="rgb(0, 0, 0)" font-size="10pt" font-family="Lato"  y="17">Book-Title</text><text text-decoration="none" x="63.5" fill="#4b4b4b" font-size="10pt" font-family="noto_regular"  y="17"></text></g></g><g id="2lkd2z31v7"><g transform="translate(1190 355)"><ellipse cx="50" cy="25" rx="50" ry="25" fill="rgba(52,193,212,1)" stroke="#34c1d4" stroke-width="1.5" stroke-linecap="round" stroke-linejoin="round"/></g><g transform="translate(1199.5, 370.5) rotate(0, 40.5, 9.5)" width="81" height="19"><text text-decoration="none" x="2" fill="rgb(0, 0, 0)" font-size="10pt" font-family="Lato"  y="17">Book-Author</text><text text-decoration="none" x="79" fill="#4b4b4b" font-size="10pt" font-family="noto_regular"  y="17"></text></g></g><g id="1laokuzjv2"><g><path d="M 1015,300 L 1210,360" fill="none" stroke="#a0a0a0" stroke-width="1.5" stroke-linecap="round" stroke-linejoin="round"/></g></g><g id="5ejxprj8id"><g><path d="M 1015,300 L 1190,290" fill="none" stroke="#a0a0a0" stroke-width="1.5" stroke-linecap="round" stroke-linejoin="round"/></g></g><g id="26flz4iouw"><g><path d="M 1015,300 L 1215,220" fill="none" stroke="#a0a0a0" stroke-width="1.5" stroke-linecap="round" stroke-linejoin="round"/></g></g><g id="1jeiczwth1"><g transform="translate(405 785)"><rect x="0" y="0" width="110.00000238418579" height="50" fill="rgba(154,175,149,1)" stroke="#9aaf95" stroke-width="1.5" stroke-linecap="round" stroke-linejoin="round"/></g><g transform="translate(415.5000011920929, 800.5) rotate(0, 44.5, 9.5)" width="89" height="19"><text text-decoration="none" x="4" fill="rgb(0, 0, 0)" font-size="10pt" font-family="Lato"  y="17">Book_Ratings</text><text text-decoration="none" x="85" fill="#4b4b4b" font-size="10pt" font-family="noto_regular"  y="17"></text></g></g><g id="1xw2p3kqg5"><g transform="translate(715 655)"><ellipse cx="50" cy="25" rx="50" ry="25" fill="rgba(52,193,212,1)" stroke="#34c1d4" stroke-width="1.5" stroke-linecap="round" stroke-linejoin="round"/></g><g transform="translate(749.5, 670.5) rotate(0, 15.5, 9.5)" width="31" height="19"><text text-decoration="underline" x="1" fill="rgb(0, 0, 0)" font-size="10pt" font-family="Lato"  y="17">ISBN</text><text text-decoration="none" x="30" fill="#4b4b4b" font-size="10pt" font-family="noto_regular"  y="17"></text></g></g><g id="1gk298gsxi"><g transform="translate(725 750)"><ellipse cx="50" cy="25" rx="50" ry="25" fill="rgba(52,193,212,1)" stroke="#34c1d4" stroke-width="1.5" stroke-linecap="round" stroke-linejoin="round"/></g><g transform="translate(749.5, 765.5) rotate(0, 25.5, 9.5)" width="51" height="19"><text text-decoration="underline" x="2.5" fill="rgb(0, 0, 0)" font-size="10pt" font-family="Lato"  y="17">User_ID</text><text text-decoration="none" x="48.5" fill="#4b4b4b" font-size="10pt" font-family="noto_regular"  y="17"></text></g></g><g id="25a93k9d4h"><g transform="translate(715 835)"><ellipse cx="64.99999761581421" cy="25" rx="64.99999761581421" ry="25" fill="rgba(52,193,212,1)" stroke="#34c1d4" stroke-width="1.5" stroke-linecap="round" stroke-linejoin="round"/></g><g transform="translate(758.9999976158142, 850.5) rotate(0, 21, 9.5)" width="42" height="19"><text text-decoration="none" x="2" fill="rgb(0, 0, 0)" font-size="10pt" font-family="Lato"  y="17">Rating</text><text text-decoration="none" x="40" fill="#4b4b4b" font-size="10pt" font-family="noto_regular"  y="17"></text></g></g><g id="2ov2pya8ez"><g><path d="M 515,810 L 715,680" fill="none" stroke="#a0a0a0" stroke-width="1.5" stroke-linecap="round" stroke-linejoin="round"/></g></g><g id="2b2t1vihlf"><g><path d="M 515,810 L 725,775" fill="none" stroke="#a0a0a0" stroke-width="1.5" stroke-linecap="round" stroke-linejoin="round"/></g></g><g id="2driyphtog"><g><path d="M 515,810 L 715,860" fill="none" stroke="#a0a0a0" stroke-width="1.5" stroke-linecap="round" stroke-linejoin="round"/></g></g><g id="1hrpapdk0p"><g transform="translate(1015 50)"><ellipse cx="67.5000011920929" cy="25" rx="67.5000011920929" ry="25" fill="rgba(52,193,212,1)" stroke="#34c1d4" stroke-width="1.5" stroke-linecap="round" stroke-linejoin="round"/></g><g transform="translate(1022.5000011920929, 65.5) rotate(0, 60, 9.5)" width="120" height="19"><text text-decoration="none" x="3.5" fill="rgb(0, 0, 0)" font-size="10pt" font-family="Lato"  y="17">Year-of-Publication</text><text text-decoration="none" x="116.5" fill="#4b4b4b" font-size="10pt" font-family="noto_regular"  y="17"></text></g></g><g id="1nhmyfdysg"><g><path d="M 965,275 L 1040,95" fill="none" stroke="#a0a0a0" stroke-width="1.5" stroke-linecap="round" stroke-linejoin="round"/></g></g><g id="w9780w5qq1"><g transform="translate(1170 85)"><ellipse cx="67.5000011920929" cy="25" rx="67.5000011920929" ry="25" fill="rgba(52,193,212,1)" stroke="#34c1d4" stroke-width="1.5" stroke-linecap="round" stroke-linejoin="round"/></g><g transform="translate(1207.500001192093, 100.5) rotate(0, 30, 9.5)" width="60" height="19"><text text-decoration="none" x="2" fill="rgb(0, 0, 0)" font-size="10pt" font-family="Lato"  y="17">Publisher</text><text text-decoration="none" x="58" fill="#4b4b4b" font-size="10pt" font-family="noto_regular"  y="17"></text></g></g><g id="u7hce2tnk6"><g><path d="M 965,275 L 1195,130" fill="none" stroke="#a0a0a0" stroke-width="1.5" stroke-linecap="round" stroke-linejoin="round"/></g></g><g id="2cwx9mjz9a"><g transform="translate(375 545)"><path d="M 155.0051474571228,45.00149846076965 L 77.5025737285614,90.0029969215393 L 0,45.00149846076965 L 77.5025737285614,0 L 155.0051474571228,45.00149846076965 L 155.0051474571228,45.00149846076965 Z" fill="rgba(154,175,149,1)" stroke="#9aaf95" stroke-width="1.5" stroke-linecap="round" stroke-linejoin="round"/></g><g transform="translate(437.5025737285614, 580.5014984607697) rotate(0, 15, 9.5)" width="30" height="19"><text text-decoration="none" x="1.5" fill="rgb(0, 0, 0)" font-size="10pt" font-family="Lato"  y="17">Rate</text><text text-decoration="none" x="28.5" fill="#4b4b4b" font-size="10pt" font-family="noto_regular"  y="17"></text></g></g><g id="7b23wmv2a3"><mask id="7beff" x="437" y="312" width="31" height="246" maskUnits="userSpaceOnUse"><rect x="437" y="312" width="31" height="246" fill="white" /><rect x="444.5" y="422.5" width="16" height="25" fill="black" /></mask><g mask="url(#7beff)"><path d="M 455,545 L 455,435 L 452.5,435 L 450,435 L 450,325" fill="none" stroke="#a0a0a0" stroke-width="1.5" stroke-linecap="round" stroke-linejoin="round"/></g><g transform="translate(447.5, 425.5)" width="10" height="19"><text text-decoration="none" x="0" fill="rgb(75, 75, 75)" font-weight="bold" font-size="9pt" font-family="Arial"  y="17">N</text><text text-decoration="none" x="10" fill="#4b4b4b" font-size="10pt" font-family="noto_regular"  y="17"></text></g></g><g id="8tq7psh3o3"><g transform="translate(885 435)"><path d="M 155.0051474571228,45.00149846076965 L 77.5025737285614,90.0029969215393 L 0,45.00149846076965 L 77.5025737285614,0 L 155.0051474571228,45.00149846076965 L 155.0051474571228,45.00149846076965 Z" fill="rgba(154,175,149,1)" stroke="#9aaf95" stroke-width="1.5" stroke-linecap="round" stroke-linejoin="round"/></g><g transform="translate(945.5025737285614, 470.50149846076965) rotate(0, 17, 9.5)" width="34" height="19"><text text-decoration="none" x="1.5" fill="rgb(0, 0, 0)" font-size="10pt" font-family="Lato"  y="17">Have</text><text text-decoration="none" x="32.5" fill="#4b4b4b" font-size="10pt" font-family="noto_regular"  y="17"></text></g></g><g id="25ghw557ds"><g transform="translate(915 635)"><rect x="0" y="0" width="100" height="50" fill="rgba(154,175,149,1)" stroke="#9aaf95" stroke-width="1.5" stroke-linecap="round" stroke-linejoin="round"/></g><g transform="translate(921, 650.5) rotate(0, 44, 9.5)" width="88" height="19"><text text-decoration="none" x="4" fill="rgb(0, 0, 0)" font-size="10pt" font-family="Lato"  y="17">Book_Images</text><text text-decoration="none" x="84" fill="#4b4b4b" font-size="10pt" font-family="noto_regular"  y="17"></text></g></g><g id="4amurptsjn"><g transform="translate(1200 645)"><ellipse cx="50" cy="25" rx="50" ry="25" fill="rgba(52,193,212,1)" stroke="#34c1d4" stroke-width="1.5" stroke-linecap="round" stroke-linejoin="round"/></g><g transform="translate(1207.5, 660.5) rotate(0, 42.5, 9.5)" width="85" height="19"><text text-decoration="none" x="4.5" fill="rgb(0, 0, 0)" font-size="10pt" font-family="Lato"  y="17">Image-URL-S</text><text text-decoration="none" x="80.5" fill="#4b4b4b" font-size="10pt" font-family="noto_regular"  y="17"></text></g></g><g id="wgnducpmdh"><g transform="translate(1195 740)"><ellipse cx="50" cy="25" rx="50" ry="25" fill="rgba(52,193,212,1)" stroke="#34c1d4" stroke-width="1.5" stroke-linecap="round" stroke-linejoin="round"/></g><g transform="translate(1202.5, 755.5) rotate(0, 42.5, 9.5)" width="85" height="19"><text text-decoration="none" x="4.5" fill="rgb(0, 0, 0)" font-size="10pt" font-family="Lato"  y="17">Image-URL-S</text><text text-decoration="none" x="80.5" fill="#4b4b4b" font-size="10pt" font-family="noto_regular"  y="17"></text></g></g><g id="1jfcxbitio"><g transform="translate(1105 555)"><ellipse cx="50" cy="25" rx="50" ry="25" fill="rgba(52,193,212,1)" stroke="#34c1d4" stroke-width="1.5" stroke-linecap="round" stroke-linejoin="round"/></g><g transform="translate(1139.5, 570.5) rotate(0, 15.5, 9.5)" width="31" height="19"><text text-decoration="underline" x="1" fill="rgb(0, 0, 0)" font-size="10pt" font-family="Lato"  y="17">ISBN</text><text text-decoration="none" x="30" fill="#4b4b4b" font-size="10pt" font-family="noto_regular"  y="17"></text></g></g><g id="ofj7a8t6hq"><g transform="translate(1055 790)"><ellipse cx="50" cy="25" rx="50" ry="25" fill="rgba(52,193,212,1)" stroke="#34c1d4" stroke-width="1.5" stroke-linecap="round" stroke-linejoin="round"/></g><g transform="translate(1063, 805.5) rotate(0, 42, 9.5)" width="84" height="19"><text text-decoration="none" x="4" fill="rgb(0, 0, 0)" font-size="10pt" font-family="Lato"  y="17">Image-URL-L</text><text text-decoration="none" x="80" fill="#4b4b4b" font-size="10pt" font-family="noto_regular"  y="17"></text></g></g><g id="1h03u8hr5c"><g><path d="M 1015,660 L 1105,580" fill="none" stroke="#a0a0a0" stroke-width="1.5" stroke-linecap="round" stroke-linejoin="round"/></g></g><g id="1sz3qkbds1"><g><path d="M 1015,660 L 1200,670" fill="none" stroke="#a0a0a0" stroke-width="1.5" stroke-linecap="round" stroke-linejoin="round"/></g></g><g id="1g0umuvf6a"><g><path d="M 965,685 L 1195,765" fill="none" stroke="#a0a0a0" stroke-width="1.5" stroke-linecap="round" stroke-linejoin="round"/></g></g><g id="14mx9v4xer"><g><path d="M 1105,790 L 965,685" fill="none" stroke="#a0a0a0" stroke-width="1.5" stroke-linecap="round" stroke-linejoin="round"/></g></g><g id="1f2v4gy2a7"><mask id="514d0" x="782" y="287" width="146" height="26.100000000000023" maskUnits="userSpaceOnUse"><rect x="782" y="287" width="146" height="26.100000000000023" fill="white" /><rect x="847.0025737285614" y="287.5525737285614" width="16" height="25" fill="black" /></mask><g mask="url(#514d0)"><path d="M 795,300.1 L 855.0025737285614,300.1 L 855.0025737285614,300.05 L 855.0025737285614,300 L 915,300" fill="none" stroke="#a0a0a0" stroke-width="1.5" stroke-linecap="round" stroke-linejoin="round"/></g><g transform="translate(850.0025737285614, 290.5525737285614)" width="10" height="19"><text text-decoration="none" x="0" fill="rgb(75, 75, 75)" font-weight="bold" font-size="9pt" font-family="Arial"  y="17">N</text><text text-decoration="none" x="10" fill="#4b4b4b" font-size="10pt" font-family="noto_regular"  y="17"></text></g></g><g id="27uogcwyr2"><mask id="d3452" x="487" y="287" width="166" height="26.100000000000023" maskUnits="userSpaceOnUse"><rect x="487" y="287" width="166" height="26.100000000000023" fill="white" /><rect x="562" y="287.55" width="16" height="25" fill="black" /></mask><g mask="url(#d3452)"><path d="M 640,300.1 L 570,300.1 L 570,300.05 L 570,300 L 500,300" fill="none" stroke="#a0a0a0" stroke-width="1.5" stroke-linecap="round" stroke-linejoin="round"/></g><g transform="translate(565, 290.55)" width="10" height="19"><text text-decoration="none" x="0" fill="rgb(75, 75, 75)" font-weight="bold" font-size="9pt" font-family="Arial"  y="17">N</text><text text-decoration="none" x="10" fill="#4b4b4b" font-size="10pt" font-family="noto_regular"  y="17"></text></g></g><g id="co0lwcpvrs"><mask id="befa0" x="442" y="622" width="31" height="176" maskUnits="userSpaceOnUse"><rect x="442" y="622" width="31" height="176" fill="white" /><rect x="449.49850153923035" y="697.5014984607697" width="16" height="25" fill="black" /></mask><g mask="url(#befa0)"><path d="M 455,635 L 455,710.0014984607697 L 457.5,710.0014984607697 L 460,710.0014984607697 L 460,785" fill="none" stroke="#a0a0a0" stroke-width="1.5" stroke-linecap="round" stroke-linejoin="round"/></g><g transform="translate(452.49850153923035, 700.5014984607697)" width="10" height="19"><text text-decoration="none" x="0" fill="rgb(75, 75, 75)" font-weight="bold" font-size="9pt" font-family="Arial"  y="17">N</text><text text-decoration="none" x="10" fill="#4b4b4b" font-size="10pt" font-family="noto_regular"  y="17"></text></g></g><g id="2n3yg6bf5m"><mask id="9e11d" x="952" y="312" width="26" height="136" maskUnits="userSpaceOnUse"><rect x="952" y="312" width="26" height="136" fill="white" /><rect x="957" y="367.5" width="16" height="25" fill="black" /></mask><g mask="url(#9e11d)"><path d="M 965,435 L 965,325" fill="none" stroke="#a0a0a0" stroke-width="1.5" stroke-linecap="round" stroke-linejoin="round"/></g><g transform="translate(960, 370.5)" width="10" height="19"><text text-decoration="none" x="0" fill="rgb(75, 75, 75)" font-weight="bold" font-size="9pt" font-family="Arial"  y="17">N</text><text text-decoration="none" x="10" fill="#4b4b4b" font-size="10pt" font-family="noto_regular"  y="17"></text></g></g><g id="2bx7k75fv9"><mask id="d4e09" x="952" y="512" width="26" height="136" maskUnits="userSpaceOnUse"><rect x="952" y="512" width="26" height="136" fill="white" /><rect x="957" y="567.5" width="16" height="25" fill="black" /></mask><g mask="url(#d4e09)"><path d="M 965,525 L 965,635" fill="none" stroke="#a0a0a0" stroke-width="1.5" stroke-linecap="round" stroke-linejoin="round"/></g><g transform="translate(960, 570.5)" width="10" height="19"><text text-decoration="none" x="0" fill="rgb(75, 75, 75)" font-weight="bold" font-size="9pt" font-family="Arial"  y="17">N</text><text text-decoration="none" x="10" fill="#4b4b4b" font-size="10pt" font-family="noto_regular"  y="17"></text></g></g><g id="1up87fpd1l"><g transform="translate(595 485)"><path d="M 155.0051474571228,45.00149846076965 L 77.5025737285614,90.0029969215393 L 0,45.00149846076965 L 77.5025737285614,0 L 155.0051474571228,45.00149846076965 L 155.0051474571228,45.00149846076965 Z" fill="rgba(154,175,149,1)" stroke="#9aaf95" stroke-width="1.5" stroke-linecap="round" stroke-linejoin="round"/></g><g transform="translate(643.5025737285614, 520.5014984607697) rotate(0, 29, 9.5)" width="58" height="19"><text text-decoration="none" x="3" fill="rgb(0, 0, 0)" font-size="10pt" font-family="Lato"  y="17">Rated&#160;</text><text text-decoration="none" x="41" fill="rgb(0, 0, 0)" font-size="10pt" font-family="Lato"  y="17">As</text><text text-decoration="none" x="55" fill="#4b4b4b" font-size="10pt" font-family="noto_regular"  y="17"></text></g></g><g id="2cktkl2cp3"><mask id="d9039" x="662" y="312" width="316" height="186" maskUnits="userSpaceOnUse"><rect x="662" y="312" width="316" height="186" fill="white" /><rect x="758.25" y="338.75" width="16" height="25" fill="black" /></mask><g mask="url(#d9039)"><path d="M 675,485 L 675,351.25 L 820,351.25 L 965,351.25 L 965,325" fill="none" stroke="#a0a0a0" stroke-width="1.5" stroke-linecap="round" stroke-linejoin="round"/></g><g transform="translate(761.25, 341.75)" width="10" height="19"><text text-decoration="none" x="0" fill="rgb(75, 75, 75)" font-weight="bold" font-size="9pt" font-family="Arial"  y="17">N</text><text text-decoration="none" x="10" fill="#4b4b4b" font-size="10pt" font-family="noto_regular"  y="17"></text></g></g><g id="3dkyl6ltws"><mask id="0062f" x="447" y="562" width="241" height="236" maskUnits="userSpaceOnUse"><rect x="447" y="562" width="241" height="236" fill="white" /><rect x="549.5" y="657.5" width="16" height="25" fill="black" /></mask><g mask="url(#0062f)"><path d="M 675,575 L 675,670 L 612.5,670 L 550,670 L 550,698.75 L 550,727.5 L 505,727.5 L 460,727.5 L 460,785" fill="none" stroke="#a0a0a0" stroke-width="1.5" stroke-linecap="round" stroke-linejoin="round"/></g><g transform="translate(552.5, 660.5)" width="10" height="19"><text text-decoration="none" x="0" fill="rgb(75, 75, 75)" font-weight="bold" font-size="9pt" font-family="Arial"  y="17">N</text><text text-decoration="none" x="10" fill="#4b4b4b" font-size="10pt" font-family="noto_regular"  y="17"></text></g></g></svg>